<svg width="1141" height="1099" viewBox="0 0 1141 1099" fill="none" xmlns="http://www.w3.org/2000/svg">
<path d="M1089.28 206.757C963.968 291.884 712.51 462.947 709.17 466.18L690.312 589.291L888.988 748.5L924 690.312H1043.35L1003.5 556.501L1141 385.767L1043.35 356.501L1089.28 206.757Z" fill="#6C32FE"/>
<path d="M125.132 813.558C215.243 770.366 396.3 683.443 399.64 681.288L410.146 879.963L303.737 1033.92L277.5 965L176 945L203 859.5L125.132 813.558Z" fill="white"/>
<path d="M416.612 580.67L473.992 568.009C488.629 574.295 518.738 587.351 522.078 589.291C525.419 591.231 549.691 488.09 561.409 436.277L406.375 264.272L96.8458 0L147 184.5L0 162.442L125.132 346L37.1758 462.678L185 563.5L161.095 675.226L416.612 580.67Z" fill="white"/>
<path d="M431.429 632.529L471.299 566.124C471.928 556.067 473.32 535.413 473.858 533.258C474.397 531.103 476.418 517.723 477.36 511.303C481.177 503.985 488.809 488.917 488.809 487.193C488.809 485.469 502.997 471.837 510.091 465.237L569.627 430.755L591.986 428.331L606.937 430.755L666.472 367.179L543.63 326.232L623.37 282.501L595.757 205.411H694.354L648.827 79.3359L761.028 137.001L798.069 68.1562L858.5 213.501L916.736 185.476L878.482 297.138L900.842 359.098L892.76 382.669L987.855 497.16L803.727 416.208L772.881 452.845L751.195 493.793L757.661 504.703C763.049 515.613 773.932 537.676 774.363 538.646C774.794 539.616 775.71 554.585 776.114 561.948L768.975 600.606L748.771 636.3L688.562 696.105L694.354 700.415L699.742 704.725C703.828 708.182 712.269 715.366 713.346 716.444C714.693 717.791 720.62 727.623 720.62 729.913V745.403L724.122 759.815L714.154 779.211L685.734 823.391L678.325 825.143L675.901 832.685L748.232 869.861H761.028C764.396 870.759 771.507 872.717 773.016 873.363C774.525 874.01 778.494 877.763 780.29 879.559L782.714 876.596L793.086 865.955L792.816 855.718L797.665 854.102L819.351 830.53L824.739 823.391L833.629 828.375L849.927 831.877H866.225C875.519 834.032 894.43 838.504 895.723 839.151C897.016 839.797 901.919 847.053 904.209 850.6L911.752 857.065C915.748 864.114 923.955 878.482 924.817 879.559C925.679 880.637 930.564 904.433 932.899 916.196L917.409 895.588L875.115 864.069L886.833 891.547L869.997 876.596L793.086 933.841L771.13 969.536L761.028 985.026L773.016 996.609L789.449 1002.13L810.596 998.63L787.024 1011.83H768.706L747.02 999.977L739.881 998.63L727.354 992.299L724.93 985.026L736.783 964.148V956.336L748.232 937.748L743.383 933.841L735.571 925.49C734.179 922.931 731.153 917.543 730.183 916.466C729.213 915.388 728.701 909.821 728.567 907.172L648.423 866.763L644.248 869.188L634.684 872.151L620.945 865.551C616.904 862.767 608.446 856.984 606.937 856.122C605.428 855.26 603.704 844.179 603.031 838.747C603.794 832.192 605.321 818.866 605.321 818.004C605.321 817.142 611.247 806.061 614.211 800.628L608.823 796.048C608.194 791.873 606.937 783.333 606.937 782.579C606.937 781.636 613.537 766.685 614.211 765.877C614.749 765.23 620.541 760.579 623.37 758.334L642.497 727.623L640.611 717.656L543.765 755.505L495.948 762.375L454.058 825.816L437.76 837.265V848.579L468.74 911.078V919.025L491.907 928.588L521.002 913.098V906.364L528.545 901.515L564.104 924.278V938.96L570.839 948.523L583.635 958.087L606.264 980.446L609.496 1019.1L593.198 1049.01L587.137 986.777L570.839 972.903L566.798 1003.21L549.288 980.446L491.907 1003.21L452.038 1051.83L450.017 1070.96C451.634 1074.15 455.109 1081.22 456.079 1084.03C457.048 1086.83 474.262 1095.07 482.748 1098.84L440.05 1093.59L418.229 1061.8L424.56 1035V1021.53L440.05 995.532C440.454 991.985 441.02 984.487 440.05 982.87C438.838 980.85 426.58 970.883 426.58 969.266V945.425L432.507 933.437L400.045 870.265L393.58 875.114L381.323 865.955L379.572 848.579L374.588 837.265L379.572 827.971L367.449 787.024C371.49 763.273 379.572 714.558 379.572 709.709C379.572 704.86 389.18 682.007 393.984 671.186L431.429 632.529Z" fill="white"/>
<path d="M788.325 343.91L780.191 297L838.073 349.396L835.614 367.554L823.129 377.012L788.325 361.88V343.91Z" fill="#6C32FE"/>
</svg>
